<svg xmlns="http://www.w3.org/2000/svg" viewBox="0 0 560 200" role="img" aria-label="アニメーション潜在空間 — 概念クラスタ、クエリプローブ、自動オービット">
  <defs>
    <linearGradient id="panel" x1="0%" y1="0%" x2="100%" y2="100%">
      <stop offset="0%" stop-color="#1a2350"/>
      <stop offset="50%" stop-color="#05060d"/>
      <stop offset="100%" stop-color="#0a1020"/>
    </linearGradient>
    <radialGradient id="probeGlow" cx="50%" cy="50%" r="50%">
      <stop offset="0%" stop-color="#4fd6e0" stop-opacity="0.9"/>
      <stop offset="60%" stop-color="#4fd6e0" stop-opacity="0.2"/>
      <stop offset="100%" stop-color="#4fd6e0" stop-opacity="0"/>
    </radialGradient>
    <radialGradient id="nebula" cx="50%" cy="50%" r="50%">
      <stop offset="0%" stop-color="#b388ff" stop-opacity="0.15"/>
      <stop offset="100%" stop-color="#b388ff" stop-opacity="0"/>
    </radialGradient>
    <clipPath id="round">
      <rect width="560" height="200" rx="18"/>
    </clipPath>
  </defs>
  <g clip-path="url(#round)">
    <rect width="560" height="200" fill="url(#panel)"/>
    <rect width="560" height="200" fill="url(#nebula)" opacity="0.8">
      <animate attributeName="opacity" values="0.5;0.9;0.5" dur="6s" repeatCount="indefinite"/>
    </rect>
    <g stroke="#243044" stroke-width="0.6" opacity="0.4">
      <line x1="0" y1="40" x2="560" y2="40"/><line x1="0" y1="80" x2="560" y2="80"/>
      <line x1="0" y1="120" x2="560" y2="120"/><line x1="0" y1="160" x2="560" y2="160"/>
      <line x1="80" y1="0" x2="80" y2="200"/><line x1="160" y1="0" x2="160" y2="200"/>
      <line x1="240" y1="0" x2="240" y2="200"/><line x1="320" y1="0" x2="320" y2="200"/>
      <line x1="400" y1="0" x2="400" y2="200"/><line x1="480" y1="0" x2="480" y2="200"/>
    </g>
    <g transform="translate(280 108)">
      <animateTransform attributeName="transform" type="rotate" values="0 280 108; 8 280 108; 0 280 108; -8 280 108; 0 280 108" dur="14s" repeatCount="indefinite" additive="sum"/>
      <g>
        <animateTransform attributeName="transform" type="rotate" from="0" to="360" dur="18s" repeatCount="indefinite"/>
        <ellipse cx="0" cy="0" rx="118" ry="42" fill="none" stroke="#7aa0ff" stroke-opacity="0.35" stroke-width="1.2"/>
      </g>
      <g fill="#ff6b6b">
        <circle cx="-72" cy="-18" r="3.5"><animate attributeName="opacity" values="0.5;1;0.5" dur="2.2s" repeatCount="indefinite"/></circle>
        <circle cx="-58" cy="-8" r="2.5" opacity="0.8"/>
        <circle cx="-80" cy="-2" r="2" opacity="0.7"/>
        <circle cx="-65" cy="6" r="3" opacity="0.85"/>
        <circle cx="-48" cy="-14" r="2.2" opacity="0.75"/>
      </g>
      <g fill="#5cc46a">
        <circle cx="58" cy="-22" r="3.2"><animate attributeName="opacity" values="0.45;1;0.45" dur="2.6s" repeatCount="indefinite"/></circle>
        <circle cx="72" cy="-10" r="2.4" opacity="0.8"/>
        <circle cx="48" cy="-6" r="2.8" opacity="0.75"/>
        <circle cx="64" cy="4" r="2" opacity="0.7"/>
        <circle cx="82" cy="-18" r="2.6" opacity="0.85"/>
      </g>
      <g fill="#ffd54f">
        <circle cx="-8" cy="28" r="3.4"><animate attributeName="opacity" values="0.4;0.95;0.4" dur="3s" repeatCount="indefinite"/></circle>
        <circle cx="10" cy="34" r="2.3" opacity="0.8"/>
        <circle cx="-22" cy="38" r="2.6" opacity="0.75"/>
        <circle cx="4" cy="44" r="2" opacity="0.7"/>
        <circle cx="18" cy="26" r="2.8" opacity="0.85"/>
      </g>
      <g fill="#e8edf5" opacity="0.55">
        <circle cx="-30" cy="-32" r="1.5"/><circle cx="36" cy="14" r="1.2"/>
        <circle cx="-95" cy="12" r="1.4"/><circle cx="90" cy="8" r="1.6"/>
        <circle cx="0" cy="-38" r="1.3"/><circle cx="-40" cy="22" r="1.1"/>
      </g>
      <g>
        <circle cx="0" cy="0" r="28" fill="url(#probeGlow)" opacity="0.35">
          <animate attributeName="r" values="18;34;18" dur="3.5s" repeatCount="indefinite"/>
          <animate attributeName="opacity" values="0.2;0.45;0.2" dur="3.5s" repeatCount="indefinite"/>
        </circle>
        <circle r="5" fill="#4fd6e0" stroke="#fff" stroke-width="1" opacity="0.95">
          <animateMotion path="M -40 -20 C 20 -40, 50 10, 30 30 C 0 50, -50 20, -40 -20" dur="7s" repeatCount="indefinite"/>
        </circle>
      </g>
      <circle cx="0" cy="-6" r="14" fill="#4fd6e0" opacity="0.25"/>
      <circle cx="0" cy="-6" r="8" fill="#b388ff" opacity="0.45">
        <animate attributeName="r" values="6;9;6" dur="4s" repeatCount="indefinite"/>
      </circle>
    </g>
    <g font-family="Segoe UI, Inter, Arial, sans-serif" font-size="10" font-weight="700" fill="#8a99b0">
      <text x="24" y="24">概念アトラス</text>
      <text x="24" y="38" fill="#ff6b6b" font-size="9">12 カテゴリ · MiniLM-L6-v2</text>
      <text x="400" y="24">クエリプローブ</text>
      <text x="400" y="38" fill="#4fd6e0" font-size="9">viridis · inferno · plasma</text>
      <text x="24" y="178" fill="#4fd6e0">● 自動オービット</text>
      <text x="110" y="178">星雲等値面</text>
      <text x="430" y="178">PCA → 3D</text>
    </g>
    <text x="480" y="178" font-family="ui-monospace, monospace" font-size="11" fill="#4fd6e0" opacity="0.85">fps 58
      <animate attributeName="opacity" values="0.5;1;0.5" dur="1.2s" repeatCount="indefinite"/>
    </text>
    <rect x="24" y="52" width="512" height="1" fill="#243044" opacity="0.6"/>
    <rect x="24" y="52" width="180" height="1" fill="#4fd6e0" opacity="0.7">
      <animate attributeName="width" values="80;220;80" dur="5s" repeatCount="indefinite"/>
      <animate attributeName="opacity" values="0.4;0.95;0.4" dur="5s" repeatCount="indefinite"/>
    </rect>
  </g>
</svg>